<svg width="278" height="66" viewBox="0 0 278 66" fill="none" xmlns="http://www.w3.org/2000/svg">
<rect x="9.27844" y="5.9234" width="259.443" height="60" rx="4" fill="#009810"/>
<rect width="278" height="60" rx="4" fill="#72BF44"/>
<path d="M33.1489 32.5869C33.1489 34.6852 32.6512 36.3145 31.6558 37.4746C30.6675 38.6348 29.2925 39.2148 27.5308 39.2148C25.7762 39.2148 24.3976 38.6419 23.395 37.4961C22.3924 36.3431 21.884 34.7318 21.8696 32.6621V29.9873C21.8696 27.8389 22.3674 26.1631 23.3628 24.96C24.3582 23.7497 25.7404 23.1445 27.5093 23.1445C29.2495 23.1445 30.6209 23.7389 31.6235 24.9277C32.6261 26.1094 33.1346 27.7708 33.1489 29.9121V32.5869ZM29.98 29.9658C29.98 28.555 29.7795 27.5059 29.3784 26.8184C28.9774 26.1309 28.3543 25.7871 27.5093 25.7871C26.6714 25.7871 26.0519 26.1201 25.6509 26.7861C25.2498 27.445 25.0422 28.4512 25.0278 29.8047V32.5869C25.0278 33.9548 25.2319 34.9645 25.6401 35.6162C26.0483 36.2607 26.6785 36.583 27.5308 36.583C28.3543 36.583 28.9666 36.2679 29.3677 35.6377C29.7687 35.0003 29.9728 34.0156 29.98 32.6836V29.9658ZM44.6216 25.9912H40.7544V39H37.5854V25.9912H33.7827V23.3594H44.6216V25.9912ZM57.4155 39H54.2573V25.9912H49.6167V39H46.4585V23.3594H57.4155V39ZM63.1304 33.5V39H59.9722V23.3594H65.3003C66.8472 23.3594 68.0789 23.8392 68.9956 24.7988C69.9194 25.7585 70.3813 27.0046 70.3813 28.5371C70.3813 30.0697 69.9266 31.2799 69.0171 32.168C68.1076 33.056 66.8472 33.5 65.2358 33.5H63.1304ZM63.1304 30.8682H65.3003C65.9019 30.8682 66.3674 30.6712 66.6968 30.2773C67.0262 29.8835 67.1909 29.3105 67.1909 28.5586C67.1909 27.778 67.0226 27.1585 66.686 26.7002C66.3494 26.2347 65.8983 25.9984 65.3325 25.9912H63.1304V30.8682ZM78.0513 35.7988H73.7437L72.9058 39H69.5649L74.4526 23.3594H77.3423L82.2622 39H78.8892L78.0513 35.7988ZM74.4312 33.167H77.353L75.8921 27.5918L74.4312 33.167ZM83.7339 39V23.3594H88.5679C90.2007 23.3594 91.4396 23.7246 92.2847 24.4551C93.1369 25.1784 93.563 26.2419 93.563 27.6455C93.563 28.4404 93.3875 29.1243 93.0366 29.6973C92.6857 30.2702 92.2059 30.6891 91.5972 30.9541C92.299 31.1546 92.8397 31.5592 93.2192 32.168C93.5988 32.7695 93.7886 33.5143 93.7886 34.4023C93.7886 35.9206 93.3696 37.0664 92.5317 37.8398C91.701 38.6133 90.4943 39 88.9116 39H83.7339ZM86.8921 32.2002V36.3789H88.9116C89.4774 36.3789 89.9071 36.2035 90.2007 35.8525C90.4943 35.5016 90.6411 35.0039 90.6411 34.3594C90.6411 32.9557 90.1326 32.236 89.1157 32.2002H86.8921ZM86.8921 29.9014H88.5356C89.7746 29.9014 90.394 29.2604 90.394 27.9785C90.394 27.2695 90.2508 26.7611 89.9644 26.4531C89.6779 26.1452 89.2124 25.9912 88.5679 25.9912H86.8921V29.9014ZM103.747 23.3594H106.905V39H103.747V28.6445L99.1382 39H95.9692V23.3594H99.1382V33.7256L103.747 23.3594ZM119.237 25.9912H115.37V39H112.201V25.9912H108.398V23.3594H119.237V25.9912ZM124.382 28.9775H126.251C127.834 28.9775 129.095 29.4287 130.033 30.3311C130.971 31.2262 131.44 32.4258 131.44 33.9297C131.44 35.4264 130.982 36.6403 130.065 37.5713C129.148 38.4951 127.934 38.9714 126.423 39H121.213V23.3594H124.382V28.9775ZM124.382 31.5986V36.3789H126.294C126.91 36.3789 127.394 36.1497 127.745 35.6914C128.103 35.2259 128.282 34.6315 128.282 33.9082C128.282 33.2279 128.106 32.6764 127.755 32.2539C127.412 31.8242 126.932 31.6058 126.316 31.5986H124.382ZM144.653 27.667C144.653 27.0941 144.492 26.6357 144.169 26.292C143.854 25.9482 143.425 25.7764 142.88 25.7764C142.401 25.7764 142.007 25.9447 141.699 26.2812C141.398 26.6107 141.248 27.0511 141.248 27.6025H138.089C138.089 26.736 138.297 25.9661 138.712 25.293C139.135 24.6126 139.715 24.0863 140.453 23.7139C141.19 23.3415 142 23.1553 142.88 23.1553C144.434 23.1553 145.645 23.5456 146.511 24.3262C147.385 25.0996 147.822 26.1917 147.822 27.6025C147.822 28.3187 147.639 28.974 147.274 29.5684C146.916 30.1556 146.422 30.6211 145.792 30.9648C146.508 31.2656 147.059 31.724 147.446 32.3398C147.833 32.9486 148.026 33.7077 148.026 34.6172C148.026 36.028 147.557 37.1452 146.619 37.9688C145.681 38.7923 144.434 39.2041 142.88 39.2041C141.935 39.2041 141.079 39.0215 140.313 38.6562C139.554 38.291 138.959 37.7682 138.53 37.0879C138.107 36.4076 137.896 35.5983 137.896 34.6602H141.065C141.065 35.1973 141.233 35.6556 141.57 36.0352C141.906 36.4147 142.343 36.6045 142.88 36.6045C143.482 36.6045 143.962 36.4147 144.32 36.0352C144.678 35.6556 144.857 35.165 144.857 34.5635C144.857 33.7542 144.703 33.1742 144.395 32.8232C144.087 32.4723 143.639 32.2969 143.052 32.2969H141.452V29.751H143.063C144.123 29.7438 144.653 29.0492 144.653 27.667ZM157.78 35.7988H153.472L152.634 39H149.293L154.181 23.3594H157.071L161.991 39H158.618L157.78 35.7988ZM154.16 33.167H157.082L155.621 27.5918L154.16 33.167ZM169.295 39V33.3711H167.641L165.332 39H161.926L164.698 32.2324C163.409 31.3372 162.764 29.9909 162.764 28.1934C162.764 26.6465 163.197 25.4541 164.064 24.6162C164.938 23.7783 166.173 23.3594 167.77 23.3594H172.464V39H169.295ZM165.933 28.4404C165.933 29.307 166.087 29.9372 166.395 30.3311C166.703 30.7178 167.183 30.9111 167.834 30.9111H169.295V25.9912H167.727C166.531 25.9912 165.933 26.8076 165.933 28.4404ZM174.935 39V23.3594H179.769C181.402 23.3594 182.641 23.7246 183.486 24.4551C184.338 25.1784 184.764 26.2419 184.764 27.6455C184.764 28.4404 184.589 29.1243 184.238 29.6973C183.887 30.2702 183.407 30.6891 182.798 30.9541C183.5 31.1546 184.041 31.5592 184.42 32.168C184.8 32.7695 184.99 33.5143 184.99 34.4023C184.99 35.9206 184.571 37.0664 183.733 37.8398C182.902 38.6133 181.695 39 180.113 39H174.935ZM178.093 32.2002V36.3789H180.113C180.679 36.3789 181.108 36.2035 181.402 35.8525C181.695 35.5016 181.842 35.0039 181.842 34.3594C181.842 32.9557 181.334 32.236 180.317 32.2002H178.093ZM178.093 29.9014H179.737C180.976 29.9014 181.595 29.2604 181.595 27.9785C181.595 27.2695 181.452 26.7611 181.166 26.4531C180.879 26.1452 180.414 25.9912 179.769 25.9912H178.093V29.9014ZM191.843 32.6191H190.468V39H187.31V23.3594H190.468V29.6113H191.532L194.25 23.3594H198.095L194.271 30.6426L198.525 39H194.765L191.843 32.6191ZM204.648 30.3096L206.753 23.3594H210.148L205.862 35.9277C205.375 37.1738 204.848 38.0296 204.283 38.4951C203.724 38.9606 203.051 39.2041 202.263 39.2256H201.919L201.167 39.1826L201.114 36.5615C201.185 36.5902 201.418 36.6045 201.812 36.6045C202.213 36.6045 202.514 36.515 202.714 36.3359C202.922 36.1569 203.101 35.7559 203.251 35.1328L203.402 34.5635L198.933 23.3594H202.317L204.648 30.3096Z" fill="white"/>
<path fill-rule="evenodd" clip-rule="evenodd" d="M260.687 31.5898C261.039 31.4254 261.264 31.0722 261.264 30.6838C261.264 30.2954 261.039 29.9421 260.687 29.7777L232.178 16.4615C231.868 16.3169 231.506 16.3404 231.217 16.524C230.929 16.7076 230.754 17.0257 230.754 17.3676V29.7246H222.007C221.587 29.7246 221.211 29.987 221.067 30.3815C220.923 30.776 221.041 31.2185 221.362 31.4892L230.754 39.4067V44C230.754 44.3418 230.929 44.66 231.217 44.8436C231.506 45.0271 231.868 45.0507 232.178 44.906L260.687 31.5898ZM232.754 39.5247C232.919 39.2235 232.916 38.8603 232.754 38.565V31.7246H249.252C249.804 31.7246 250.252 31.2769 250.252 30.7246C250.252 30.1723 249.804 29.7246 249.252 29.7246H232.754V18.9383L257.901 30.6838L232.754 42.4292V39.5247ZM230.754 31.7246V36.7909L224.744 31.7246H230.754ZM219.723 24.7487C219.17 24.7487 218.723 25.1964 218.723 25.7487C218.723 26.301 219.17 26.7487 219.723 26.7487H227.798C228.351 26.7487 228.798 26.301 228.798 25.7487C228.798 25.1964 228.351 24.7487 227.798 24.7487H219.723ZM219.723 36.0056C219.17 36.0056 218.723 36.4533 218.723 37.0056C218.723 37.5579 219.17 38.0056 219.723 38.0056H222.007C222.559 38.0056 223.007 37.5579 223.007 37.0056C223.007 36.4533 222.559 36.0056 222.007 36.0056H219.723Z" fill="white"/>
</svg>
